<svg width="400" height="356" viewBox="0 0 400 356" fill="none" xmlns="http://www.w3.org/2000/svg">
<path d="M260.444 322.732L260.444 322.733C250.059 331.215 239.896 339.412 229.836 345.491C219.776 351.57 209.869 355.5 200 355.5C190.131 355.5 180.224 351.565 170.164 345.486C160.104 339.406 149.941 331.215 139.556 322.753C133.993 318.217 128.24 313.633 122.383 308.966C97.2374 288.93 70.1721 267.364 47.9343 241.475C20.5342 209.576 0.5 171.152 0.5 121.02C0.5 70.9163 27.9021 28.1297 66.4637 9.90461C104.989 -8.30327 154.76 -2.04211 199.634 46.1708L200 46.564L200.366 46.1708C245.24 -2.04204 295.011 -8.29294 333.536 9.92266C372.098 28.1555 399.5 70.9474 399.5 121.041C399.5 171.162 379.471 209.587 352.073 241.483C329.798 267.415 302.677 289.008 277.488 309.062C271.676 313.689 265.967 318.234 260.444 322.732Z" fill="#F21C80" stroke="white"/>
</svg>
