<svg width="137" height="155" viewBox="0 0 137 155" fill="none" xmlns="http://www.w3.org/2000/svg">
<path d="M29.5601 61.6434L14.3101 75.1312C12.2619 76.9371 10.9029 79.3971 10.4643 82.0923C10.0258 84.7875 10.5348 87.5514 11.9048 89.9135L25.71 114.133C27.0627 116.475 29.1836 118.278 31.7133 119.235C34.2429 120.192 37.0258 120.246 39.5903 119.386L58.7739 112.847L29.5601 61.6434Z" stroke="#F21C80" stroke-width="4" stroke-linecap="round" stroke-linejoin="round"/>
<path d="M60.5361 9.62137C56.723 21.3322 51.9463 32.707 46.2549 43.629C41.9862 50.7193 36.2998 56.852 29.5518 61.6434L58.7739 112.688C66.3322 109.205 74.5234 107.307 82.8432 107.109C95.0699 107.661 107.23 109.197 119.198 111.719" stroke="#F21C80" stroke-width="4" stroke-linecap="round" stroke-linejoin="round"/>
<path d="M12.9487 91.684L7.88768 94.6739C6.54068 95.4462 5.361 96.4791 4.41749 97.7123C3.47398 98.9454 2.78553 100.354 2.39234 101.856C1.99292 103.359 1.89725 104.926 2.11092 106.466C2.32459 108.007 2.84331 109.489 3.63672 110.826C4.4 112.174 5.42357 113.357 6.64796 114.306C7.87236 115.255 9.27316 115.952 10.769 116.355C12.2631 116.757 13.8229 116.853 15.3553 116.64C16.8877 116.426 18.3614 115.906 19.6885 115.11L24.4238 112.12M64.5448 110.425L78.7509 135.229C80.2698 137.947 80.6755 141.148 79.8827 144.159C79.0899 147.17 77.1603 149.756 74.4999 151.373C73.1609 152.145 71.6823 152.645 70.1493 152.844C68.6163 153.043 67.0591 152.937 65.5672 152.532C64.0754 152.127 62.6784 151.431 61.4566 150.483C60.2349 149.536 59.2124 148.357 58.4482 147.013L42.3964 118.501M60.4943 9.62974L70.6415 3.73353C71.9737 2.95581 73.447 2.4504 74.9761 2.24661C76.5052 2.04283 78.0595 2.14472 79.5489 2.5464C81.0382 2.94807 82.433 3.64152 83.6522 4.5865C84.8715 5.53149 85.891 6.7092 86.6515 8.0513L133.479 89.6796C135 92.3876 135.398 95.5844 134.588 98.5828C133.777 101.581 131.823 104.142 129.144 105.715L118.997 111.619L60.4943 9.62974Z" stroke="#F21C80" stroke-width="4" stroke-linecap="round" stroke-linejoin="round"/>
</svg>
