<svg width="18" height="17" viewBox="0 0 18 17" fill="none" xmlns="http://www.w3.org/2000/svg">
<path d="M16.7588 8.30206L9.40349 0.952064C9.35053 0.899 9.28762 0.856901 9.21837 0.828177C9.14912 0.799453 9.07489 0.784668 8.99992 0.784668C8.92495 0.784668 8.85071 0.799453 8.78146 0.828177C8.71221 0.856901 8.64931 0.899 8.59635 0.952064L1.24099 8.30206C1.0267 8.51635 0.905273 8.80742 0.905273 9.11099C0.905273 9.74135 1.41777 10.2538 2.04813 10.2538H2.82313V15.4985C2.82313 15.8146 3.07849 16.0699 3.39456 16.0699H7.85706V12.0699H9.85706V16.0699H14.6053C14.9213 16.0699 15.1767 15.8146 15.1767 15.4985V10.2538H15.9517C16.2553 10.2538 16.5463 10.1342 16.7606 9.91813C17.2053 9.47171 17.2053 8.74849 16.7588 8.30206Z" fill='#FD3B8A'/>
</svg>
