<svg width="21" height="20" viewBox="0 0 21 20" fill="none" xmlns="http://www.w3.org/2000/svg">
<g clip-path="url(#clip0_2020_465)">
<path fill-rule="evenodd" clip-rule="evenodd" d="M14.5356 5.45625C13.5031 4.4715 12.1251 3.93503 10.6995 3.95707C8.09061 3.95707 5.87493 5.71712 5.08491 8.08712V8.08717C4.66603 9.32913 4.66603 10.674 5.08491 11.9159H5.08858C5.88226 14.2823 8.09427 16.0423 10.7031 16.0423C12.0498 16.0423 13.206 15.6979 14.102 15.0895V15.087C15.1566 14.3889 15.8768 13.2902 16.1009 12.0482H10.6995V8.19742H20.1318C20.2494 8.86617 20.3045 9.54961 20.3045 10.2294C20.3045 13.2709 19.2175 15.8424 17.3262 17.5841L17.3282 17.5856C15.671 19.1142 13.3965 19.9997 10.6995 19.9997C6.91845 19.9997 3.4608 17.8685 1.7632 14.4917V14.4917C0.344879 11.6661 0.344883 8.33703 1.76321 5.51139H1.76324L1.7632 5.51136C3.4608 2.13087 6.91845 -0.000302674 10.6995 -0.000302674C13.1834 -0.0296982 15.5828 0.903611 17.3906 2.6012L14.5356 5.45625Z" fill="#9CA3AF"/>
</g>
<defs>
<clipPath id="clip0_2020_465">
<rect width="20" height="20" fill="white" transform="translate(0.5)"/>
</clipPath>
</defs>
</svg>
