<svg width="17" height="17" viewBox="0 0 17 17" fill="none" xmlns="http://www.w3.org/2000/svg">
<path d="M15.8536 7.98723L8.49821 0.177858C8.44525 0.121478 8.38235 0.0767476 8.3131 0.0462284C8.24385 0.0157092 8.16961 0 8.09464 0C8.01967 0 7.94544 0.0157092 7.87619 0.0462284C7.80694 0.0767476 7.74403 0.121478 7.69107 0.177858L0.335714 7.98723C0.121429 8.21491 0 8.52418 0 8.84672C0 9.51647 0.5125 10.061 1.14286 10.061H1.91786V15.6334C1.91786 15.9693 2.17321 16.2406 2.48929 16.2406H6.95179V11.9906H8.95179V16.2406H13.7C14.0161 16.2406 14.2714 15.9693 14.2714 15.6334V10.061H15.0464C15.35 10.061 15.6411 9.93389 15.8554 9.70431C16.3 9.22998 16.3 8.46156 15.8536 7.98723Z" fill="black"/>
</svg>
