<svg width="16" height="17" viewBox="0 0 16 17" fill="none" xmlns="http://www.w3.org/2000/svg">
<path d="M6.24449 12.8932V12.81C6.24449 12.1917 5.85872 11.6527 5.37572 11.2669C4.7453 10.7641 4.28674 10.0779 4.06353 9.30302C3.84031 8.52818 3.86346 7.70312 4.12979 6.94203C4.39611 6.18093 4.89243 5.52145 5.55006 5.05484C6.20768 4.58823 6.99409 4.33758 7.80044 4.33758C8.60678 4.33758 9.39319 4.58823 10.0508 5.05484C10.7084 5.52145 11.2048 6.18093 11.4711 6.94203C11.7374 7.70312 11.7606 8.52818 11.5373 9.30302C11.3141 10.0779 10.8556 10.7641 10.2252 11.2669C9.74138 11.6535 9.3556 12.1917 9.3556 12.81V12.8932M6.24449 12.8932V14.4488C6.24449 14.6551 6.32644 14.8529 6.4723 14.9988C6.61816 15.1446 6.81599 15.2266 7.02227 15.2266H8.57783C8.78411 15.2266 8.98194 15.1446 9.1278 14.9988C9.27366 14.8529 9.3556 14.6551 9.3556 14.4488V12.8932M6.24449 12.8932H9.3556M14.0223 8.22656H14.8M1.57783 8.22656H0.800049M7.80005 2.00434V1.22656M12.1999 3.82667L12.7498 3.27678M3.40094 3.82667L2.85027 3.27678M7.80005 10.5599V9.00434" stroke="#262A36" stroke-width="1.6" stroke-linecap="round" stroke-linejoin="round"/>
<path d="M6.24449 12.8932V12.81C6.24449 12.1917 5.85872 11.6527 5.37572 11.2669C4.7453 10.7641 4.28674 10.0779 4.06353 9.30302C3.84031 8.52818 3.86346 7.70312 4.12979 6.94203C4.39611 6.18093 4.89243 5.52145 5.55006 5.05484C6.20768 4.58823 6.99409 4.33758 7.80044 4.33758C8.60678 4.33758 9.39319 4.58823 10.0508 5.05484C10.7084 5.52145 11.2048 6.18093 11.4711 6.94203C11.7374 7.70312 11.7606 8.52818 11.5373 9.30302C11.3141 10.0779 10.8556 10.7641 10.2252 11.2669C9.74138 11.6535 9.3556 12.1917 9.3556 12.81V12.8932M6.24449 12.8932V14.4488C6.24449 14.6551 6.32644 14.8529 6.4723 14.9988C6.61816 15.1446 6.81599 15.2266 7.02227 15.2266H8.57783C8.78411 15.2266 8.98194 15.1446 9.1278 14.9988C9.27366 14.8529 9.3556 14.6551 9.3556 14.4488V12.8932M6.24449 12.8932H9.3556M14.0223 8.22656H14.8M1.57783 8.22656H0.800049M7.80005 2.00434V1.22656M12.1999 3.82667L12.7498 3.27678M3.40094 3.82667L2.85027 3.27678M7.80005 10.5599V9.00434" stroke="black" stroke-opacity="0.2" stroke-width="1.6" stroke-linecap="round" stroke-linejoin="round"/>
</svg>
