<svg width="16" height="16" viewBox="0 0 16 16" fill="none" xmlns="http://www.w3.org/2000/svg">
<path d="M6.44444 12.6667V12.5834C6.44444 11.9651 6.05867 11.4261 5.57567 11.0403C4.94525 10.5376 4.4867 9.85129 4.26348 9.07646C4.04026 8.30162 4.06342 7.47656 4.32974 6.71547C4.59606 5.95437 5.09239 5.29488 5.75001 4.82828C6.40764 4.36167 7.19404 4.11102 8.00039 4.11102C8.80673 4.11102 9.59314 4.36167 10.2508 4.82828C10.9084 5.29488 11.4047 5.95437 11.671 6.71547C11.9374 7.47656 11.9605 8.30162 11.7373 9.07646C11.5141 9.85129 11.0555 10.5376 10.4251 11.0403C9.94133 11.4269 9.55556 11.9651 9.55556 12.5834V12.6667M6.44444 12.6667V14.2222C6.44444 14.4285 6.52639 14.6263 6.67225 14.7722C6.81811 14.9181 7.01594 15 7.22222 15H8.77778C8.98406 15 9.18189 14.9181 9.32775 14.7722C9.47361 14.6263 9.55556 14.4285 9.55556 14.2222V12.6667M6.44444 12.6667H9.55556M14.2222 8H15M1.77778 8H1M8 1.77778V1M12.3999 3.60011L12.9498 3.05022M3.60089 3.60011L3.05022 3.05022M8 10.3333V8.77778" stroke="#FD3B8A" stroke-width="1.6" stroke-linecap="round" stroke-linejoin="round"/>
</svg>
