<svg width="18" height="18" viewBox="0 0 18 18" fill="none" xmlns="http://www.w3.org/2000/svg">
<g clip-path="url(#clip0_224_81)">
<path d="M9.00294 0C5.24552 0 4.14662 0.00387774 3.93301 0.0215999C3.16193 0.0857128 2.68212 0.207156 2.15938 0.467478C1.75653 0.66758 1.43882 0.899519 1.12526 1.22466C0.55422 1.8176 0.20813 2.54707 0.0828436 3.4142C0.021935 3.83515 0.00421266 3.921 0.000613795 6.07122C-0.000767244 6.78796 0.000613795 7.73124 0.000613795 8.99647C0.000613795 12.7519 0.0047637 13.85 0.0227648 14.0632C0.0850613 14.8137 0.202728 15.2859 0.451914 15.8024C0.928135 16.7911 1.83765 17.5333 2.90914 17.8103C3.28015 17.9058 3.68992 17.9585 4.21598 17.9834C4.43886 17.9931 6.71058 18 8.98369 18C11.2568 18 13.5299 17.9972 13.7473 17.9862C14.3564 17.9575 14.7101 17.91 15.1012 17.8089C16.1796 17.5306 17.0725 16.7994 17.5584 15.7969C17.8027 15.2928 17.9266 14.8026 17.9827 14.0913C17.9949 13.9362 18 11.4635 18 8.99412C18 6.5243 17.9945 4.05615 17.9823 3.90106C17.9255 3.17823 17.8016 2.6922 17.5494 2.17846C17.3424 1.75791 17.1126 1.44385 16.779 1.12274C16.1836 0.553892 15.4554 0.207707 14.5877 0.082529C14.1673 0.0217361 14.0835 0.00373493 11.9322 0H9.00294Z" fill="url(#paint0_radial_224_81)"/>
<path d="M9.00294 0C5.24552 0 4.14662 0.00387774 3.93301 0.0215999C3.16193 0.0857128 2.68212 0.207156 2.15938 0.467478C1.75653 0.66758 1.43882 0.899519 1.12526 1.22466C0.55422 1.8176 0.20813 2.54707 0.0828436 3.4142C0.021935 3.83515 0.00421266 3.921 0.000613795 6.07122C-0.000767244 6.78796 0.000613795 7.73124 0.000613795 8.99647C0.000613795 12.7519 0.0047637 13.85 0.0227648 14.0632C0.0850613 14.8137 0.202728 15.2859 0.451914 15.8024C0.928135 16.7911 1.83765 17.5333 2.90914 17.8103C3.28015 17.9058 3.68992 17.9585 4.21598 17.9834C4.43886 17.9931 6.71058 18 8.98369 18C11.2568 18 13.5299 17.9972 13.7473 17.9862C14.3564 17.9575 14.7101 17.91 15.1012 17.8089C16.1796 17.5306 17.0725 16.7994 17.5584 15.7969C17.8027 15.2928 17.9266 14.8026 17.9827 14.0913C17.9949 13.9362 18 11.4635 18 8.99412C18 6.5243 17.9945 4.05615 17.9823 3.90106C17.9255 3.17823 17.8016 2.6922 17.5494 2.17846C17.3424 1.75791 17.1126 1.44385 16.779 1.12274C16.1836 0.553892 15.4554 0.207707 14.5877 0.082529C14.1673 0.0217361 14.0835 0.00373493 11.9322 0H9.00294Z" fill="url(#paint1_radial_224_81)"/>
<path d="M9.00294 0C5.24552 0 4.14662 0.00387774 3.93301 0.0215999C3.16193 0.0857128 2.68212 0.207156 2.15938 0.467478C1.75653 0.66758 1.43882 0.899519 1.12526 1.22466C0.55422 1.8176 0.20813 2.54707 0.0828436 3.4142C0.021935 3.83515 0.00421266 3.921 0.000613795 6.07122C-0.000767244 6.78796 0.000613795 7.73124 0.000613795 8.99647C0.000613795 12.7519 0.0047637 13.85 0.0227648 14.0632C0.0850613 14.8137 0.202728 15.2859 0.451914 15.8024C0.928135 16.7911 1.83765 17.5333 2.90914 17.8103C3.28015 17.9058 3.68992 17.9585 4.21598 17.9834C4.43886 17.9931 6.71058 18 8.98369 18C11.2568 18 13.5299 17.9972 13.7473 17.9862C14.3564 17.9575 14.7101 17.91 15.1012 17.8089C16.1796 17.5306 17.0725 16.7994 17.5584 15.7969C17.8027 15.2928 17.9266 14.8026 17.9827 14.0913C17.9949 13.9362 18 11.4635 18 8.99412C18 6.5243 17.9945 4.05615 17.9823 3.90106C17.9255 3.17823 17.8016 2.6922 17.5494 2.17846C17.3424 1.75791 17.1126 1.44385 16.779 1.12274C16.1836 0.553892 15.4554 0.207707 14.5877 0.082529C14.1673 0.0217361 14.0835 0.00373493 11.9322 0H9.00294Z" fill="url(#paint2_radial_224_81)"/>
<path d="M9.00294 0C5.24552 0 4.14662 0.00387774 3.93301 0.0215999C3.16193 0.0857128 2.68212 0.207156 2.15938 0.467478C1.75653 0.66758 1.43882 0.899519 1.12526 1.22466C0.55422 1.8176 0.20813 2.54707 0.0828436 3.4142C0.021935 3.83515 0.00421266 3.921 0.000613795 6.07122C-0.000767244 6.78796 0.000613795 7.73124 0.000613795 8.99647C0.000613795 12.7519 0.0047637 13.85 0.0227648 14.0632C0.0850613 14.8137 0.202728 15.2859 0.451914 15.8024C0.928135 16.7911 1.83765 17.5333 2.90914 17.8103C3.28015 17.9058 3.68992 17.9585 4.21598 17.9834C4.43886 17.9931 6.71058 18 8.98369 18C11.2568 18 13.5299 17.9972 13.7473 17.9862C14.3564 17.9575 14.7101 17.91 15.1012 17.8089C16.1796 17.5306 17.0725 16.7994 17.5584 15.7969C17.8027 15.2928 17.9266 14.8026 17.9827 14.0913C17.9949 13.9362 18 11.4635 18 8.99412C18 6.5243 17.9945 4.05615 17.9823 3.90106C17.9255 3.17823 17.8016 2.6922 17.5494 2.17846C17.3424 1.75791 17.1126 1.44385 16.779 1.12274C16.1836 0.553892 15.4554 0.207707 14.5877 0.082529C14.1673 0.0217361 14.0835 0.00373493 11.9322 0H9.00294Z" fill="url(#paint3_radial_224_81)"/>
<path d="M9.00364 2.31128C7.18606 2.31128 6.95796 2.31922 6.24408 2.35168C5.53161 2.38428 5.04528 2.497 4.61975 2.66238C4.17958 2.83319 3.80619 3.06168 3.4342 3.43353C3.06193 3.80526 2.83326 4.17836 2.66177 4.61807C2.49584 5.04343 2.38291 5.52953 2.35084 6.2412C2.31891 6.95454 2.31055 7.18261 2.31055 8.99884C2.31055 10.8151 2.31864 11.0423 2.35098 11.7556C2.38375 12.4676 2.49655 12.9536 2.6619 13.3788C2.83298 13.8186 3.06164 14.1917 3.43377 14.5635C3.80563 14.9355 4.17902 15.1645 4.61891 15.3353C5.04472 15.5007 5.53119 15.6134 6.24352 15.646C6.9574 15.6785 7.18536 15.6864 9.0028 15.6864C10.8205 15.6864 11.0479 15.6785 11.7618 15.646C12.4743 15.6134 12.9612 15.5007 13.387 15.3353C13.827 15.1645 14.1998 14.9355 14.5717 14.5635C14.944 14.1917 15.1726 13.8186 15.3441 13.3789C15.5086 12.9536 15.6216 12.4675 15.655 11.7558C15.6871 11.0425 15.6955 10.8151 15.6955 8.99884C15.6955 7.18261 15.6871 6.95468 15.655 6.24134C15.6216 5.52939 15.5086 5.04343 15.3441 4.61821C15.1726 4.17836 14.944 3.80525 14.5717 3.43353C14.1994 3.06154 13.8271 2.83305 13.3866 2.66238C12.9599 2.497 12.4733 2.38428 11.7608 2.35168C11.0469 2.31922 10.8197 2.31128 9.00155 2.31128H9.00364ZM8.40326 3.51644C8.58145 3.51616 8.78028 3.51644 9.00364 3.51644C10.7905 3.51644 11.0023 3.52285 11.708 3.55489C12.3605 3.58471 12.7146 3.69365 12.9506 3.78519C13.2629 3.9064 13.4855 4.0513 13.7196 4.28536C13.9539 4.51943 14.0989 4.74235 14.2205 5.05443C14.3121 5.28989 14.4212 5.64378 14.4509 6.29582C14.483 7.00079 14.49 7.21257 14.49 8.99731C14.49 10.7821 14.483 10.9938 14.4509 11.6988C14.4211 12.3508 14.3121 12.7047 14.2205 12.9402C14.0992 13.2523 13.9539 13.4745 13.7196 13.7084C13.4854 13.9425 13.263 14.0874 12.9506 14.2086C12.7149 14.3006 12.3605 14.4092 11.708 14.439C11.0025 14.4711 10.7905 14.478 9.00364 14.478C7.21659 14.478 7.0048 14.4711 6.2993 14.439C5.64678 14.4089 5.29263 14.3 5.05658 14.2085C4.74426 14.0872 4.52117 13.9423 4.28694 13.7083C4.0527 13.4742 3.9077 13.2519 3.78611 12.9396C3.6945 12.7042 3.58533 12.3503 3.55564 11.6983C3.52357 10.9933 3.51715 10.7815 3.51715 8.99564C3.51715 7.20979 3.52357 6.99912 3.55564 6.29414C3.58548 5.6421 3.6945 5.28822 3.78611 5.05249C3.90741 4.7404 4.0527 4.51748 4.28694 4.28342C4.52117 4.04935 4.74426 3.90445 5.05658 3.78296C5.29249 3.69101 5.64678 3.58234 6.2993 3.55238C6.91668 3.52451 7.15594 3.51616 8.40326 3.51476L8.40326 3.51644ZM12.5761 4.62685C12.1327 4.62685 11.7729 4.98589 11.7729 5.42907C11.7729 5.87213 12.1327 6.23159 12.5761 6.23159C13.0194 6.23159 13.3792 5.87213 13.3792 5.42907C13.3792 4.98603 13.0194 4.62658 12.5761 4.62658L12.5761 4.62685ZM9.00364 5.5645C7.1056 5.5645 5.56675 7.10222 5.56675 8.99884C5.56675 10.8955 7.1056 12.4325 9.00364 12.4325C10.9017 12.4325 12.44 10.8955 12.44 8.99884C12.44 7.10222 10.9015 5.5645 9.0035 5.5645H9.00364ZM9.00364 6.76966C10.2356 6.76966 11.2345 7.76764 11.2345 8.99884C11.2345 10.2299 10.2356 11.228 9.00364 11.228C7.77152 11.228 6.77279 10.2299 6.77279 8.99884C6.77279 7.76764 7.77152 6.76966 9.00364 6.76966Z" fill="white"/>
</g>
<defs>
<radialGradient id="paint0_radial_224_81" cx="0" cy="0" r="1" gradientUnits="userSpaceOnUse" gradientTransform="translate(17.4188 8.43682) rotate(164.25) scale(11.501 8.2859)">
<stop stop-color="#FF005F"/>
<stop offset="1" stop-color="#FC01D8"/>
</radialGradient>
<radialGradient id="paint1_radial_224_81" cx="0" cy="0" r="1" gradientUnits="userSpaceOnUse" gradientTransform="translate(4.78111 19.3864) rotate(-90) scale(14.3679 15.2441)">
<stop stop-color="#FFCC00"/>
<stop offset="0.1242" stop-color="#FFCC00"/>
<stop offset="0.5672" stop-color="#FE4A05"/>
<stop offset="0.6942" stop-color="#FF0F3F"/>
<stop offset="1" stop-color="#FE0657" stop-opacity="0"/>
</radialGradient>
<radialGradient id="paint2_radial_224_81" cx="0" cy="0" r="1" gradientUnits="userSpaceOnUse" gradientTransform="translate(9.45485 17.7461) rotate(-59.8703) scale(5.94127 7.73486)">
<stop stop-color="#FFCC00"/>
<stop offset="1" stop-color="#FFCC00" stop-opacity="0"/>
</radialGradient>
<radialGradient id="paint3_radial_224_81" cx="0" cy="0" r="1" gradientUnits="userSpaceOnUse" gradientTransform="translate(2.44221 0.732955) rotate(164.274) scale(11.3734 3.87491)">
<stop stop-color="#780CFF"/>
<stop offset="1" stop-color="#820BFF" stop-opacity="0"/>
</radialGradient>
<clipPath id="clip0_224_81">
<rect width="18" height="18" fill="white"/>
</clipPath>
</defs>
</svg>
