<svg width="17" height="17" viewBox="0 0 17 17" fill="none" xmlns="http://www.w3.org/2000/svg">
<path d="M8.5 4.42C7.69305 4.42 6.90423 4.65929 6.23327 5.1076C5.56232 5.55592 5.03938 6.19313 4.73057 6.93865C4.42177 7.68417 4.34097 8.50453 4.4984 9.29597C4.65582 10.0874 5.04441 10.8144 5.615 11.385C6.1856 11.9556 6.91259 12.3442 7.70403 12.5016C8.49547 12.659 9.31583 12.5782 10.0613 12.2694C10.8069 11.9606 11.4441 11.4377 11.8924 10.7667C12.3407 10.0958 12.58 9.30695 12.58 8.5C12.5788 7.41829 12.1485 6.38124 11.3836 5.61636C10.6188 4.85147 9.58171 4.42122 8.5 4.42ZM8.5 11.22C7.96203 11.22 7.43615 11.0605 6.98885 10.7616C6.54155 10.4627 6.19292 10.0379 5.98705 9.5409C5.78118 9.04388 5.72731 8.49698 5.83226 7.96935C5.93722 7.44173 6.19627 6.95707 6.57667 6.57667C6.95707 6.19627 7.44173 5.93722 7.96935 5.83226C8.49698 5.72731 9.04388 5.78118 9.5409 5.98705C10.0379 6.19292 10.4627 6.54155 10.7616 6.98885C11.0605 7.43615 11.22 7.96203 11.22 8.5C11.2192 9.22114 10.9323 9.91251 10.4224 10.4224C9.91251 10.9323 9.22114 11.2192 8.5 11.22ZM12.24 0H4.76C3.49801 0.00142925 2.28811 0.503387 1.39575 1.39575C0.503387 2.28811 0.00142925 3.49801 0 4.76V12.24C0.00142925 13.502 0.503387 14.7119 1.39575 15.6042C2.28811 16.4966 3.49801 16.9986 4.76 17H12.24C13.502 16.9986 14.7119 16.4966 15.6042 15.6042C16.4966 14.7119 16.9986 13.502 17 12.24V4.76C16.9986 3.49801 16.4966 2.28811 15.6042 1.39575C14.7119 0.503387 13.502 0.00142925 12.24 0ZM15.64 12.24C15.639 13.1414 15.2804 14.0056 14.643 14.643C14.0056 15.2804 13.1414 15.639 12.24 15.64H4.76C3.85858 15.639 2.99436 15.2804 2.35696 14.643C1.71956 14.0056 1.36102 13.1414 1.36 12.24V4.76C1.36102 3.85858 1.71956 2.99436 2.35696 2.35696C2.99436 1.71956 3.85858 1.36102 4.76 1.36H12.24C13.1414 1.36102 14.0056 1.71956 14.643 2.35696C15.2804 2.99436 15.639 3.85858 15.64 4.76V12.24ZM13.94 4.08C13.94 4.28174 13.8802 4.47894 13.7681 4.64668C13.656 4.81442 13.4967 4.94516 13.3103 5.02236C13.124 5.09956 12.9189 5.11976 12.721 5.0804C12.5231 5.04104 12.3414 4.9439 12.1988 4.80125C12.0561 4.6586 11.959 4.47685 11.9196 4.27899C11.8802 4.08113 11.9004 3.87604 11.9776 3.68966C12.0548 3.50328 12.1856 3.34398 12.3533 3.2319C12.5211 3.11982 12.7183 3.06 12.92 3.06C13.1905 3.06 13.45 3.16746 13.6412 3.35875C13.8325 3.55004 13.94 3.80948 13.94 4.08Z" fill="#E1306C"/>
</svg>
