<svg width="16" height="16" viewBox="0 0 16 16" fill="none" xmlns="http://www.w3.org/2000/svg">
<path d="M8 4.16C7.24052 4.16 6.49809 4.38521 5.86661 4.80716C5.23513 5.2291 4.74294 5.82883 4.4523 6.5305C4.16166 7.23216 4.08562 8.00426 4.23378 8.74915C4.38195 9.49403 4.74768 10.1783 5.28471 10.7153C5.82174 11.2523 6.50597 11.618 7.25085 11.7662C7.99574 11.9144 8.76784 11.8383 9.4695 11.5477C10.1712 11.2571 10.7709 10.7649 11.1928 10.1334C11.6148 9.5019 11.84 8.75948 11.84 8C11.8388 6.98192 11.4339 6.00587 10.714 5.28598C9.99413 4.56609 9.01808 4.16115 8 4.16ZM8 10.56C7.49368 10.56 6.99873 10.4099 6.57774 10.1286C6.15675 9.84727 5.82863 9.44745 5.63487 8.97967C5.44111 8.51189 5.39041 7.99716 5.48919 7.50057C5.58797 7.00398 5.83178 6.54783 6.18981 6.18981C6.54783 5.83178 7.00398 5.58797 7.50057 5.48919C7.99716 5.39041 8.51189 5.44111 8.97967 5.63487C9.44745 5.82863 9.84727 6.15675 10.1286 6.57774C10.4099 6.99873 10.56 7.49368 10.56 8C10.5592 8.67872 10.2893 9.32942 9.80934 9.80934C9.32942 10.2893 8.67872 10.5592 8 10.56ZM11.52 0H4.48C3.29224 0.00134518 2.15352 0.473776 1.31365 1.31365C0.473776 2.15352 0.00134518 3.29224 0 4.48V11.52C0.00134518 12.7078 0.473776 13.8465 1.31365 14.6864C2.15352 15.5262 3.29224 15.9987 4.48 16H11.52C12.7078 15.9987 13.8465 15.5262 14.6864 14.6864C15.5262 13.8465 15.9987 12.7078 16 11.52V4.48C15.9987 3.29224 15.5262 2.15352 14.6864 1.31365C13.8465 0.473776 12.7078 0.00134518 11.52 0ZM14.72 11.52C14.719 12.3684 14.3816 13.1818 13.7817 13.7817C13.1818 14.3816 12.3684 14.719 11.52 14.72H4.48C3.6316 14.719 2.81822 14.3816 2.21832 13.7817C1.61841 13.1818 1.28096 12.3684 1.28 11.52V4.48C1.28096 3.6316 1.61841 2.81822 2.21832 2.21832C2.81822 1.61841 3.6316 1.28096 4.48 1.28H11.52C12.3684 1.28096 13.1818 1.61841 13.7817 2.21832C14.3816 2.81822 14.719 3.6316 14.72 4.48V11.52ZM13.12 3.84C13.12 4.02987 13.0637 4.21548 12.9582 4.37335C12.8527 4.53122 12.7028 4.65426 12.5274 4.72692C12.352 4.79958 12.1589 4.8186 11.9727 4.78155C11.7865 4.74451 11.6154 4.65308 11.4812 4.51882C11.3469 4.38456 11.2555 4.21351 11.2184 4.02729C11.1814 3.84107 11.2004 3.64804 11.2731 3.47262C11.3457 3.29721 11.4688 3.14728 11.6267 3.04179C11.7845 2.9363 11.9701 2.88 12.16 2.88C12.4146 2.88 12.6588 2.98114 12.8388 3.16118C13.0189 3.34121 13.12 3.58539 13.12 3.84Z" fill="#EC4899"/>
</svg>
