<svg width="16" height="17" viewBox="0 0 16 17" fill="none" xmlns="http://www.w3.org/2000/svg">
<path d="M14.6667 2.42725H10.6667C9.95942 2.42725 9.28115 2.7082 8.78105 3.20829C8.28095 3.70839 8 4.38667 8 5.09391V14.4272C8 13.8968 8.21071 13.3881 8.58579 13.013C8.96086 12.638 9.46957 12.4272 10 12.4272H14.6667V2.42725Z" stroke="black" stroke-width="2" stroke-linecap="round" stroke-linejoin="round"/>
<path d="M1.33325 2.42725H5.33325C6.0405 2.42725 6.71877 2.7082 7.21887 3.20829C7.71897 3.70839 7.99992 4.38667 7.99992 5.09391V14.4272C7.99992 13.8968 7.7892 13.3881 7.41413 13.013C7.03906 12.638 6.53035 12.4272 5.99992 12.4272H1.33325V2.42725Z" stroke="black" stroke-width="2" stroke-linecap="round" stroke-linejoin="round"/>
</svg>
