<svg width="16" height="17" viewBox="0 0 16 17" fill="none" xmlns="http://www.w3.org/2000/svg">
<path d="M13.8933 3.19564C13.5528 2.85498 13.1485 2.58474 12.7036 2.40037C12.2586 2.21599 11.7817 2.12109 11.3 2.12109C10.8183 2.12109 10.3414 2.21599 9.89643 2.40037C9.45145 2.58474 9.04717 2.85498 8.70666 3.19564L8 3.90231L7.29333 3.19564C6.60554 2.50785 5.67269 2.12145 4.7 2.12145C3.72731 2.12145 2.79446 2.50785 2.10666 3.19564C1.41887 3.88344 1.03247 4.81629 1.03247 5.78898C1.03247 6.76167 1.41887 7.69452 2.10666 8.38231L2.81333 9.08898L8 14.2756L13.1867 9.08898L13.8933 8.38231C14.234 8.04181 14.5042 7.63752 14.6886 7.19255C14.873 6.74757 14.9679 6.27064 14.9679 5.78898C14.9679 5.30732 14.873 4.83038 14.6886 4.38541C14.5042 3.94043 14.234 3.53615 13.8933 3.19564V3.19564Z" stroke="#EDD134" stroke-width="1.5" stroke-linecap="round" stroke-linejoin="round"/>
</svg>
