<svg width="16" height="16" viewBox="0 0 16 16" fill="none" xmlns="http://www.w3.org/2000/svg">
<path d="M12 14.6665C13.1046 14.6665 14 13.7711 14 12.6665C14 11.5619 13.1046 10.6665 12 10.6665C10.8954 10.6665 10 11.5619 10 12.6665C10 13.7711 10.8954 14.6665 12 14.6665Z" stroke="black" stroke-width="2" stroke-linecap="round" stroke-linejoin="round"/>
<path d="M4 10C5.10457 10 6 9.10457 6 8C6 6.89543 5.10457 6 4 6C2.89543 6 2 6.89543 2 8C2 9.10457 2.89543 10 4 10Z" stroke="black" stroke-width="2" stroke-linecap="round" stroke-linejoin="round"/>
<path d="M5.72656 9.00684L10.2799 11.6602" stroke="black" stroke-width="2" stroke-linecap="round" stroke-linejoin="round"/>
<path d="M12 5.3335C13.1046 5.3335 14 4.43807 14 3.3335C14 2.22893 13.1046 1.3335 12 1.3335C10.8954 1.3335 10 2.22893 10 3.3335C10 4.43807 10.8954 5.3335 12 5.3335Z" stroke="black" stroke-width="2" stroke-linecap="round" stroke-linejoin="round"/>
<path d="M10.2732 4.33984L5.72656 6.99318" stroke="black" stroke-width="2" stroke-linecap="round" stroke-linejoin="round"/>
</svg>
