<svg width="20" height="16" viewBox="0 0 20 16" fill="none" xmlns="http://www.w3.org/2000/svg">
<path d="M5.76663 16C3.86796 16.0002 2.00033 15.5183 0.338908 14.5992C0.212023 14.5286 0.111978 14.4182 0.0542903 14.2849C-0.00339746 14.1517 -0.0155037 14.0031 0.0198493 13.8623C0.0552024 13.7214 0.136039 13.5962 0.24982 13.506C0.363602 13.4158 0.503969 13.3657 0.649149 13.3634C2.26121 13.3409 3.84304 12.9225 5.25546 12.1452C3.57689 10.7674 2.33428 8.93213 1.67843 6.86197C1.02258 4.79181 0.981694 2.57579 1.56072 0.482847C1.59461 0.360622 1.66305 0.250776 1.75783 0.166496C1.85262 0.0822158 1.96971 0.0270853 2.09506 0.00772293C2.22041 -0.0116394 2.34868 0.00558963 2.46448 0.0573415C2.58028 0.109093 2.67867 0.193168 2.74786 0.299472C3.46087 1.4006 4.38649 2.34833 5.47049 3.08712C6.55449 3.82591 7.77505 4.3409 9.06064 4.6019C9.08289 3.77278 9.36536 2.97166 9.86804 2.31193C10.3707 1.6522 11.0682 1.16728 11.8617 0.925815C12.6552 0.684348 13.5045 0.698563 14.2895 0.966447C15.0745 1.23433 15.7553 1.74231 16.2356 2.41849C17.0864 2.3614 17.9262 2.19492 18.7345 1.92314C18.8659 1.87897 19.008 1.87742 19.1405 1.91872C19.2729 1.96002 19.3889 2.04206 19.4719 2.15316C19.555 2.26425 19.6009 2.39872 19.6031 2.53742C19.6052 2.67612 19.5636 2.81196 19.484 2.92559C18.7852 3.92627 17.9272 4.80565 16.9439 5.52875C16.7585 8.36705 15.5003 11.0285 13.4245 12.9732C11.3488 14.9178 8.61098 15.9999 5.76663 16ZM3.21812 14.3489C4.04958 14.57 4.90626 14.6821 5.76663 14.6823C8.32631 14.6823 10.7862 13.6891 12.6283 11.912C14.4705 10.1348 15.5514 7.71219 15.6433 5.15415C15.6469 5.05149 15.6745 4.9511 15.7238 4.86099C15.7731 4.77088 15.8429 4.69356 15.9274 4.6352C16.3563 4.33912 16.7609 4.00931 17.1373 3.64891C16.7288 3.70638 16.3173 3.7413 15.9049 3.75351C15.7825 3.75714 15.6614 3.72656 15.5554 3.66522C15.4494 3.60387 15.3626 3.51418 15.3047 3.40622C14.9946 2.86156 14.5005 2.4452 13.9112 2.23181C13.3219 2.01842 12.6758 2.02196 12.0888 2.24179C11.5018 2.46162 11.0124 2.88337 10.7082 3.4314C10.4041 3.97942 10.3051 4.61789 10.429 5.23229C10.4538 5.33671 10.4527 5.4456 10.4259 5.54951C10.399 5.65342 10.3472 5.74921 10.275 5.82855C10.2027 5.90789 10.1122 5.96839 10.0112 6.0048C9.91023 6.0412 9.80191 6.05241 9.69563 6.03745C6.92103 5.70766 4.37131 4.34832 2.55106 2.22844C2.49856 2.64411 2.47226 3.06266 2.47232 3.48163C2.47231 5.09318 2.8663 6.6803 3.61999 8.10474C4.37368 9.52919 5.46421 10.7478 6.79658 11.6543C6.88527 11.7148 6.95785 11.796 7.00801 11.8909C7.05816 11.9858 7.08438 12.0915 7.08438 12.1988C7.08438 12.3061 7.05816 12.4118 7.00801 12.5067C6.95785 12.6016 6.88527 12.6828 6.79658 12.7432C5.70812 13.4859 4.49652 14.0295 3.21812 14.3489Z" fill="#EC4899"/>
</svg>
