<svg width="16" height="16" viewBox="0 0 16 16" fill="none" xmlns="http://www.w3.org/2000/svg">
<path d="M10.8031 5.94L7.11077 3.03091C7.01807 2.95782 6.91032 2.91584 6.79901 2.90947C6.6877 2.9031 6.57702 2.93256 6.47878 2.99472C6.38053 3.05688 6.29842 3.1494 6.24119 3.26241C6.18396 3.37542 6.15377 3.50467 6.15385 3.63636V9.45455C6.15377 9.58624 6.18396 9.71549 6.24119 9.8285C6.29842 9.94151 6.38053 10.034 6.47878 10.0962C6.57702 10.1583 6.6877 10.1878 6.79901 10.1814C6.91032 10.1751 7.01807 10.1331 7.11077 10.06L10.8031 7.15091C10.8875 7.08452 10.9567 6.99451 11.0046 6.88888C11.0525 6.78326 11.0775 6.66528 11.0775 6.54545C11.0775 6.42563 11.0525 6.30765 11.0046 6.20203C10.9567 6.0964 10.8875 6.00639 10.8031 5.94ZM7.38462 8.09546V5L9.35231 6.54545L7.38462 8.09546ZM14.7692 0H1.23077C0.904349 0 0.591298 0.153246 0.360484 0.426026C0.12967 0.698807 0 1.06878 0 1.45455V11.6364C0 12.0221 0.12967 12.3921 0.360484 12.6649C0.591298 12.9377 0.904349 13.0909 1.23077 13.0909H14.7692C15.0957 13.0909 15.4087 12.9377 15.6395 12.6649C15.8703 12.3921 16 12.0221 16 11.6364V1.45455C16 1.06878 15.8703 0.698807 15.6395 0.426026C15.4087 0.153246 15.0957 0 14.7692 0ZM14.7692 11.6364H1.23077V1.45455H14.7692V11.6364ZM16 15.2727C16 15.4656 15.9352 15.6506 15.8198 15.787C15.7044 15.9234 15.5478 16 15.3846 16H0.615385C0.452174 16 0.295649 15.9234 0.180242 15.787C0.064835 15.6506 0 15.4656 0 15.2727C0 15.0798 0.064835 14.8949 0.180242 14.7585C0.295649 14.6221 0.452174 14.5455 0.615385 14.5455H15.3846C15.5478 14.5455 15.7044 14.6221 15.8198 14.7585C15.9352 14.8949 16 15.0798 16 15.2727Z" fill="#FD3B8A"/>
</svg>
