<svg width="17" height="17" viewBox="0 0 17 17" fill="none" xmlns="http://www.w3.org/2000/svg">
<path d="M11.0531 6.69L7.36077 3.78091C7.26807 3.70782 7.16032 3.66584 7.04901 3.65947C6.9377 3.6531 6.82702 3.68256 6.72878 3.74472C6.63053 3.80688 6.54842 3.8994 6.49119 4.01241C6.43396 4.12542 6.40377 4.25467 6.40385 4.38636V10.2045C6.40377 10.3362 6.43396 10.4655 6.49119 10.5785C6.54842 10.6915 6.63053 10.784 6.72878 10.8462C6.82702 10.9083 6.9377 10.9378 7.04901 10.9314C7.16032 10.9251 7.26807 10.8831 7.36077 10.81L11.0531 7.90091C11.1375 7.83452 11.2067 7.74451 11.2546 7.63888C11.3025 7.53326 11.3275 7.41528 11.3275 7.29545C11.3275 7.17563 11.3025 7.05765 11.2546 6.95203C11.2067 6.8464 11.1375 6.75639 11.0531 6.69ZM7.63462 8.84546V5.75L9.60231 7.29545L7.63462 8.84546ZM15.0192 0.75H1.48077C1.15435 0.75 0.841298 0.903246 0.610484 1.17603C0.37967 1.44881 0.25 1.81878 0.25 2.20455V12.3864C0.25 12.7721 0.37967 13.1421 0.610484 13.4149C0.841298 13.6877 1.15435 13.8409 1.48077 13.8409H15.0192C15.3457 13.8409 15.6587 13.6877 15.8895 13.4149C16.1203 13.1421 16.25 12.7721 16.25 12.3864V2.20455C16.25 1.81878 16.1203 1.44881 15.8895 1.17603C15.6587 0.903246 15.3457 0.75 15.0192 0.75ZM15.0192 12.3864H1.48077V2.20455H15.0192V12.3864ZM16.25 16.0227C16.25 16.2156 16.1852 16.4006 16.0698 16.537C15.9544 16.6734 15.7978 16.75 15.6346 16.75H0.865385C0.702174 16.75 0.545649 16.6734 0.430242 16.537C0.314835 16.4006 0.25 16.2156 0.25 16.0227C0.25 15.8298 0.314835 15.6449 0.430242 15.5085C0.545649 15.3721 0.702174 15.2955 0.865385 15.2955H15.6346C15.7978 15.2955 15.9544 15.3721 16.0698 15.5085C16.1852 15.6449 16.25 15.8298 16.25 16.0227Z" fill="black"/>
</svg>
