<svg width="22" height="17" viewBox="0 0 22 17" fill="none" xmlns="http://www.w3.org/2000/svg">
<path d="M10.9154 16.375H10.9153C8.32547 16.3752 5.73758 16.2447 3.16307 15.9841C2.1392 15.8746 1.23948 15.0405 1.09068 14.1776C0.470023 10.4158 0.469773 6.58849 1.08994 2.82666C1.23972 1.95843 2.14035 1.12524 3.15884 1.01622C8.31312 0.494733 13.5133 0.494595 18.6676 1.0158C19.6918 1.12542 20.5914 1.9597 20.74 2.82243C21.3606 6.58418 21.3609 10.4115 20.7407 14.1733C20.591 15.042 19.6896 15.8756 18.6703 15.9838L18.6703 15.9838L18.6692 15.9839C16.0942 16.2446 13.5057 16.3752 10.9154 16.375ZM10.0684 12.6799L10.0684 12.6799L14.9495 9.65967C15.1456 9.53836 15.3114 9.37086 15.4281 9.16844C15.5451 8.96567 15.608 8.73587 15.608 8.49994C15.608 8.26402 15.5451 8.03422 15.4281 7.83145C15.3114 7.62904 15.1456 7.46153 14.9495 7.34022L10.0684 4.32002L10.0684 4.32002C9.85309 4.18682 9.60676 4.11248 9.35555 4.10121C9.10437 4.08994 8.85262 4.14191 8.62637 4.25429C8.39991 4.36678 8.20435 4.5373 8.06526 4.75281C7.92584 4.96881 7.84974 5.22018 7.84974 5.47972V5.47974V11.5202V11.5202C7.84974 11.7797 7.92584 12.0311 8.06526 12.2471C8.20435 12.4626 8.39991 12.6331 8.62637 12.7456C8.85262 12.858 9.10437 12.9099 9.35555 12.8987C9.60676 12.8874 9.85309 12.8131 10.0684 12.6799Z" fill="#FF0000" stroke="#FF0000" stroke-width="1.25"/>
</svg>
