<svg width="21" height="16" viewBox="0 0 21 16" fill="none" xmlns="http://www.w3.org/2000/svg">
<path d="M10.2733 15.5H10.2732C7.83267 15.5002 5.39394 15.3772 2.96782 15.1316C1.969 15.0249 1.0868 14.2135 0.939512 13.3583C0.353731 9.8081 0.353495 6.19599 0.938811 2.64573C1.08699 1.78562 1.96996 0.974939 2.96391 0.868674C7.82106 0.377238 12.7214 0.377108 17.5786 0.868287C18.5777 0.975089 19.4598 1.78655 19.607 2.64157C20.1928 6.19181 20.193 9.80398 19.6077 13.3543C19.4595 14.2147 18.5759 15.0257 17.5814 15.1313L17.5808 15.1314L17.5799 15.1315C15.1534 15.3771 12.7142 15.5002 10.2733 15.5ZM9.42969 11.859L9.18126 11.4575L9.42969 11.859L14.0237 9.01642C14.0237 9.01642 14.0237 9.01642 14.0237 9.01641C14.1963 8.90963 14.3419 8.76244 14.4442 8.58504C14.5466 8.40735 14.6016 8.20624 14.6016 7.99995C14.6016 7.79366 14.5466 7.59254 14.4442 7.41486C14.3419 7.23746 14.1963 7.09027 14.0237 6.98349C14.0237 6.98348 14.0237 6.98348 14.0237 6.98348L9.42969 4.14094L9.18126 4.54244L9.42969 4.14093C9.24017 4.02367 9.023 3.95806 8.80127 3.94811C8.57956 3.93817 8.35751 3.98405 8.15819 4.08306C7.95869 4.18215 7.78692 4.33213 7.66496 4.52108C7.54275 4.71043 7.47623 4.93046 7.47622 5.15738V5.1574V10.8425V10.8425C7.47623 11.0694 7.54275 11.2895 7.66496 11.4788C7.78692 11.6678 7.95869 11.8177 8.15819 11.9168C8.35752 12.0158 8.57956 12.0617 8.80127 12.0518C9.023 12.0418 9.24017 11.9762 9.42969 11.859Z" stroke="#EC4899"/>
</svg>
