<svg width="285" height="40" viewBox="0 0 285 40" fill="none" xmlns="http://www.w3.org/2000/svg">
<path d="M14.3136 14.9088C14.1792 14.7744 13.9296 14.592 13.5648 14.3616C13.2192 14.1312 12.7872 13.9104 12.2688 13.6992C11.7696 13.488 11.2224 13.3056 10.6272 13.152C10.032 12.9792 9.4272 12.8928 8.8128 12.8928C7.7376 12.8928 6.9216 13.0944 6.3648 13.4976C5.8272 13.9008 5.5584 14.4672 5.5584 15.1968C5.5584 15.7536 5.7312 16.1952 6.0768 16.5216C6.4224 16.848 6.9408 17.1264 7.632 17.3568C8.3232 17.5872 9.1872 17.8368 10.224 18.1056C11.568 18.432 12.7296 18.8352 13.7088 19.3152C14.7072 19.776 15.4656 20.3904 15.984 21.1584C16.5216 21.9072 16.7904 22.9056 16.7904 24.1536C16.7904 25.248 16.5888 26.1888 16.1856 26.976C15.7824 27.744 15.2256 28.368 14.5152 28.848C13.8048 29.328 12.9984 29.6832 12.096 29.9136C11.1936 30.1248 10.2336 30.2304 9.216 30.2304C8.1984 30.2304 7.1808 30.1248 6.1632 29.9136C5.1456 29.7024 4.1664 29.4048 3.2256 29.0208C2.2848 28.6176 1.4208 28.1376 0.6336 27.5808L2.3904 24.1536C2.5632 24.3264 2.8704 24.5568 3.312 24.8448C3.7536 25.1136 4.2912 25.392 4.9248 25.68C5.5584 25.9488 6.2496 26.1792 6.9984 26.3712C7.7472 26.5632 8.5056 26.6592 9.2736 26.6592C10.3488 26.6592 11.1648 26.4768 11.7216 26.112C12.2784 25.7472 12.5568 25.2288 12.5568 24.5568C12.5568 23.9424 12.336 23.4624 11.8944 23.1168C11.4528 22.7712 10.8384 22.4736 10.0512 22.224C9.264 21.9552 8.3328 21.6672 7.2576 21.36C5.9712 20.9952 4.896 20.592 4.032 20.1504C3.168 19.6896 2.5248 19.1136 2.1024 18.4224C1.68 17.7312 1.4688 16.8672 1.4688 15.8304C1.4688 14.4288 1.7952 13.2576 2.448 12.3168C3.12 11.3568 4.0224 10.6368 5.1552 10.1568C6.288 9.6576 7.5456 9.408 8.928 9.408C9.888 9.408 10.7904 9.5136 11.6352 9.7248C12.4992 9.936 13.3056 10.2144 14.0544 10.56C14.8032 10.9056 15.4752 11.28 16.0704 11.6832L14.3136 14.9088ZM19.7937 30V9.552H28.4625C29.4033 9.552 30.2673 9.744 31.0545 10.128C31.8417 10.512 32.5233 11.0304 33.0993 11.6832C33.6945 12.336 34.1553 13.0656 34.4817 13.872C34.8081 14.6784 34.9713 15.504 34.9713 16.3488C34.9713 17.5008 34.7025 18.5952 34.1649 19.632C33.6273 20.6688 32.8881 21.5136 31.9473 22.1664C31.0065 22.8192 29.8929 23.1456 28.6065 23.1456H23.7681V30H19.7937ZM23.7681 19.6608H28.3761C28.8561 19.6608 29.2881 19.5264 29.6721 19.2576C30.0561 18.9888 30.3633 18.6048 30.5937 18.1056C30.8241 17.5872 30.9393 17.0016 30.9393 16.3488C30.9393 15.6384 30.8049 15.0336 30.5361 14.5344C30.2865 14.0352 29.9505 13.6608 29.5281 13.4112C29.1249 13.1616 28.6833 13.0368 28.2033 13.0368H23.7681V19.6608ZM37.7375 30V9.552H46.7807C47.7215 9.552 48.5855 9.744 49.3727 10.128C50.1791 10.512 50.8703 11.0304 51.4463 11.6832C52.0415 12.336 52.4927 13.0656 52.7999 13.872C53.1263 14.6784 53.2895 15.504 53.2895 16.3488C53.2895 17.2128 53.1359 18.048 52.8287 18.8544C52.5407 19.6416 52.1183 20.3328 51.5615 20.928C51.0047 21.5232 50.3519 21.984 49.6031 22.3104L54.2687 30H49.8911L45.6863 23.1456H41.7119V30H37.7375ZM41.7119 19.6608H46.6943C47.1935 19.6608 47.6351 19.5168 48.0191 19.2288C48.4031 18.9216 48.7103 18.5184 48.9407 18.0192C49.1711 17.52 49.2863 16.9632 49.2863 16.3488C49.2863 15.696 49.1519 15.1296 48.8831 14.6496C48.6143 14.1504 48.2687 13.7568 47.8463 13.4688C47.4431 13.1808 47.0015 13.0368 46.5215 13.0368H41.7119V19.6608ZM71.089 26.5152V30H56.8906V9.552H70.8298V13.0368H60.865V17.9616H69.4762V21.1872H60.865V26.5152H71.089ZM79.7459 9.552H83.7779L91.2947 30H87.2051L85.3043 24.9024H78.1619L76.2899 30H72.2003L79.7459 9.552ZM84.5843 22.1088L81.7619 13.6704L78.8243 22.1088H84.5843ZM93.5375 30V9.552H100.968C103.195 9.552 105.057 10.0128 106.555 10.9344C108.053 11.8368 109.176 13.0656 109.925 14.6208C110.673 16.1568 111.048 17.8656 111.048 19.7472C111.048 21.8208 110.635 23.6256 109.809 25.1616C108.984 26.6976 107.813 27.888 106.296 28.7328C104.798 29.5776 103.022 30 100.968 30H93.5375ZM107.045 19.7472C107.045 18.4224 106.805 17.2608 106.325 16.2624C105.845 15.2448 105.153 14.4576 104.251 13.9008C103.349 13.3248 102.254 13.0368 100.968 13.0368H97.5119V26.5152H100.968C102.273 26.5152 103.377 26.2272 104.28 25.6512C105.182 25.056 105.864 24.2496 106.325 23.232C106.805 22.1952 107.045 21.0336 107.045 19.7472ZM122.649 30.144C121.324 30.144 120.067 29.8752 118.876 29.3376C117.705 28.8 116.668 28.0608 115.766 27.12C114.883 26.16 114.191 25.0464 113.692 23.7792C113.193 22.512 112.943 21.1392 112.943 19.6608C112.943 18.2592 113.193 16.944 113.692 15.7152C114.191 14.4672 114.892 13.3728 115.795 12.432C116.697 11.4912 117.753 10.752 118.963 10.2144C120.172 9.6768 121.487 9.408 122.908 9.408C124.828 9.408 126.47 9.8208 127.833 10.6464C129.215 11.4528 130.252 12.528 130.943 13.872L127.977 16.0608C127.459 15.0432 126.729 14.2656 125.788 13.728C124.867 13.1904 123.859 12.9216 122.764 12.9216C121.9 12.9216 121.113 13.104 120.403 13.4688C119.692 13.8336 119.078 14.3328 118.559 14.9664C118.041 15.6 117.638 16.3296 117.35 17.1552C117.081 17.9808 116.947 18.8544 116.947 19.776C116.947 20.7552 117.091 21.6576 117.379 22.4832C117.686 23.3088 118.108 24.0288 118.646 24.6432C119.203 25.2576 119.846 25.7472 120.575 26.112C121.305 26.4576 122.111 26.6304 122.995 26.6304C124.031 26.6304 125.02 26.3616 125.961 25.824C126.921 25.2864 127.814 24.4992 128.639 23.4624V27.3792C126.931 29.2224 124.934 30.144 122.649 30.144ZM128.351 22.3968H124.233V19.488H131.635V30H128.351V22.3968ZM190.372 30V9.552H197.802C200.029 9.552 201.892 10.0128 203.389 10.9344C204.887 11.8368 206.01 13.0656 206.759 14.6208C207.508 16.1568 207.882 17.8656 207.882 19.7472C207.882 21.8208 207.469 23.6256 206.644 25.1616C205.818 26.6976 204.647 27.888 203.13 28.7328C201.633 29.5776 199.857 30 197.802 30H190.372ZM203.879 19.7472C203.879 18.4224 203.639 17.2608 203.159 16.2624C202.679 15.2448 201.988 14.4576 201.085 13.9008C200.183 13.3248 199.089 13.0368 197.802 13.0368H194.346V26.5152H197.802C199.108 26.5152 200.212 26.2272 201.114 25.6512C202.017 25.056 202.698 24.2496 203.159 23.232C203.639 22.1952 203.879 21.0336 203.879 19.7472ZM214.962 16.8672V30H210.987V9.552H214.155L224.725 23.0304V9.5808H228.699V30H225.387L214.962 16.8672ZM247.151 26.5152V30H232.953V9.552H246.892V13.0368H236.927V17.9616H245.539V21.1872H236.927V26.5152H247.151ZM262.432 14.9088C262.298 14.7744 262.048 14.592 261.684 14.3616C261.338 14.1312 260.906 13.9104 260.388 13.6992C259.888 13.488 259.341 13.3056 258.746 13.152C258.151 12.9792 257.546 12.8928 256.932 12.8928C255.856 12.8928 255.04 13.0944 254.484 13.4976C253.946 13.9008 253.677 14.4672 253.677 15.1968C253.677 15.7536 253.85 16.1952 254.196 16.5216C254.541 16.848 255.06 17.1264 255.751 17.3568C256.442 17.5872 257.306 17.8368 258.343 18.1056C259.687 18.432 260.848 18.8352 261.828 19.3152C262.826 19.776 263.584 20.3904 264.103 21.1584C264.64 21.9072 264.909 22.9056 264.909 24.1536C264.909 25.248 264.708 26.1888 264.304 26.976C263.901 27.744 263.344 28.368 262.634 28.848C261.924 29.328 261.117 29.6832 260.215 29.9136C259.312 30.1248 258.352 30.2304 257.335 30.2304C256.317 30.2304 255.3 30.1248 254.282 29.9136C253.264 29.7024 252.285 29.4048 251.344 29.0208C250.404 28.6176 249.54 28.1376 248.752 27.5808L250.509 24.1536C250.682 24.3264 250.989 24.5568 251.431 24.8448C251.872 25.1136 252.41 25.392 253.044 25.68C253.677 25.9488 254.368 26.1792 255.117 26.3712C255.866 26.5632 256.624 26.6592 257.392 26.6592C258.468 26.6592 259.284 26.4768 259.84 26.112C260.397 25.7472 260.676 25.2288 260.676 24.5568C260.676 23.9424 260.455 23.4624 260.013 23.1168C259.572 22.7712 258.957 22.4736 258.17 22.224C257.383 21.9552 256.452 21.6672 255.376 21.36C254.09 20.9952 253.015 20.592 252.151 20.1504C251.287 19.6896 250.644 19.1136 250.221 18.4224C249.799 17.7312 249.588 16.8672 249.588 15.8304C249.588 14.4288 249.914 13.2576 250.567 12.3168C251.239 11.3568 252.141 10.6368 253.274 10.1568C254.407 9.6576 255.664 9.408 257.047 9.408C258.007 9.408 258.909 9.5136 259.754 9.7248C260.618 9.936 261.424 10.2144 262.173 10.56C262.922 10.9056 263.594 11.28 264.189 11.6832L262.432 14.9088ZM280.095 14.9088C279.96 14.7744 279.711 14.592 279.346 14.3616C279 14.1312 278.568 13.9104 278.05 13.6992C277.551 13.488 277.004 13.3056 276.408 13.152C275.813 12.9792 275.208 12.8928 274.594 12.8928C273.519 12.8928 272.703 13.0944 272.146 13.4976C271.608 13.9008 271.34 14.4672 271.34 15.1968C271.34 15.7536 271.512 16.1952 271.858 16.5216C272.204 16.848 272.722 17.1264 273.413 17.3568C274.104 17.5872 274.968 17.8368 276.005 18.1056C277.349 18.432 278.511 18.8352 279.49 19.3152C280.488 19.776 281.247 20.3904 281.765 21.1584C282.303 21.9072 282.572 22.9056 282.572 24.1536C282.572 25.248 282.37 26.1888 281.967 26.976C281.564 27.744 281.007 28.368 280.296 28.848C279.586 29.328 278.78 29.6832 277.877 29.9136C276.975 30.1248 276.015 30.2304 274.997 30.2304C273.98 30.2304 272.962 30.1248 271.944 29.9136C270.927 29.7024 269.948 29.4048 269.007 29.0208C268.066 28.6176 267.202 28.1376 266.415 27.5808L268.172 24.1536C268.344 24.3264 268.652 24.5568 269.093 24.8448C269.535 25.1136 270.072 25.392 270.706 25.68C271.34 25.9488 272.031 26.1792 272.78 26.3712C273.528 26.5632 274.287 26.6592 275.055 26.6592C276.13 26.6592 276.946 26.4768 277.503 26.112C278.06 25.7472 278.338 25.2288 278.338 24.5568C278.338 23.9424 278.117 23.4624 277.676 23.1168C277.234 22.7712 276.62 22.4736 275.832 22.224C275.045 21.9552 274.114 21.6672 273.039 21.36C271.752 20.9952 270.677 20.592 269.813 20.1504C268.949 19.6896 268.306 19.1136 267.884 18.4224C267.461 17.7312 267.25 16.8672 267.25 15.8304C267.25 14.4288 267.576 13.2576 268.229 12.3168C268.901 11.3568 269.804 10.6368 270.936 10.1568C272.069 9.6576 273.327 9.408 274.709 9.408C275.669 9.408 276.572 9.5136 277.416 9.7248C278.28 9.936 279.087 10.2144 279.836 10.56C280.584 10.9056 281.256 11.28 281.852 11.6832L280.095 14.9088Z" fill="#F21C80"/>
<path d="M148.279 32.8L146.383 31.0736C139.647 24.9657 135.2 20.9243 135.2 15.9935C135.2 11.952 138.365 8.8 142.393 8.8C144.669 8.8 146.853 9.8594 148.279 11.5204C149.705 9.8594 151.889 8.8 154.165 8.8C158.193 8.8 161.358 11.952 161.358 15.9935C161.358 20.9243 156.911 24.9657 150.175 31.0736L148.279 32.8Z" fill="#F21C80"/>
<path d="M175.479 32.8L173.583 31.0736C166.847 24.9657 162.4 20.9243 162.4 15.9935C162.4 11.952 165.565 8.8 169.593 8.8C171.869 8.8 174.053 9.8594 175.479 11.5204C176.905 9.8594 179.089 8.8 181.365 8.8C185.393 8.8 188.558 11.952 188.558 15.9935C188.558 20.9243 184.111 24.9657 177.376 31.0736L175.479 32.8Z" fill="#F21C80"/>
</svg>
