<svg width="305" height="40" viewBox="0 0 305 40" fill="none" xmlns="http://www.w3.org/2000/svg">
<path d="M153.079 32L151.183 30.2736C144.447 24.1657 140 20.1242 140 15.1935C140 11.152 143.165 8 147.193 8C149.469 8 151.653 9.0594 153.079 10.7204C154.505 9.0594 156.689 8 158.965 8C162.993 8 166.158 11.152 166.158 15.1935C166.158 20.1242 161.711 24.1657 154.975 30.2736L153.079 32Z" fill="white"/>
<path d="M183.079 32L181.183 30.2736C174.447 24.1657 170 20.1242 170 15.1935C170 11.152 173.165 8 177.193 8C179.469 8 181.653 9.0594 183.079 10.7204C184.505 9.0594 186.689 8 188.965 8C192.993 8 196.158 11.152 196.158 15.1935C196.158 20.1242 191.711 24.1657 184.975 30.2736L183.079 32Z" fill="white"/>
<path d="M14.3136 14.9088C14.1792 14.7744 13.9296 14.592 13.5648 14.3616C13.2192 14.1312 12.7872 13.9104 12.2688 13.6992C11.7696 13.488 11.2224 13.3056 10.6272 13.152C10.032 12.9792 9.4272 12.8928 8.8128 12.8928C7.7376 12.8928 6.9216 13.0944 6.3648 13.4976C5.8272 13.9008 5.5584 14.4672 5.5584 15.1968C5.5584 15.7536 5.7312 16.1952 6.0768 16.5216C6.4224 16.848 6.9408 17.1264 7.632 17.3568C8.3232 17.5872 9.1872 17.8368 10.224 18.1056C11.568 18.432 12.7296 18.8352 13.7088 19.3152C14.7072 19.776 15.4656 20.3904 15.984 21.1584C16.5216 21.9072 16.7904 22.9056 16.7904 24.1536C16.7904 25.248 16.5888 26.1888 16.1856 26.976C15.7824 27.744 15.2256 28.368 14.5152 28.848C13.8048 29.328 12.9984 29.6832 12.096 29.9136C11.1936 30.1248 10.2336 30.2304 9.216 30.2304C8.1984 30.2304 7.1808 30.1248 6.1632 29.9136C5.1456 29.7024 4.1664 29.4048 3.2256 29.0208C2.2848 28.6176 1.4208 28.1376 0.6336 27.5808L2.3904 24.1536C2.5632 24.3264 2.8704 24.5568 3.312 24.8448C3.7536 25.1136 4.2912 25.392 4.9248 25.68C5.5584 25.9488 6.2496 26.1792 6.9984 26.3712C7.7472 26.5632 8.5056 26.6592 9.2736 26.6592C10.3488 26.6592 11.1648 26.4768 11.7216 26.112C12.2784 25.7472 12.5568 25.2288 12.5568 24.5568C12.5568 23.9424 12.336 23.4624 11.8944 23.1168C11.4528 22.7712 10.8384 22.4736 10.0512 22.224C9.264 21.9552 8.3328 21.6672 7.2576 21.36C5.9712 20.9952 4.896 20.592 4.032 20.1504C3.168 19.6896 2.5248 19.1136 2.1024 18.4224C1.68 17.7312 1.4688 16.8672 1.4688 15.8304C1.4688 14.4288 1.7952 13.2576 2.448 12.3168C3.12 11.3568 4.0224 10.6368 5.1552 10.1568C6.288 9.6576 7.5456 9.408 8.928 9.408C9.888 9.408 10.7904 9.5136 11.6352 9.7248C12.4992 9.936 13.3056 10.2144 14.0544 10.56C14.8032 10.9056 15.4752 11.28 16.0704 11.6832L14.3136 14.9088ZM19.7937 30V9.552H28.4625C29.4033 9.552 30.2673 9.744 31.0545 10.128C31.8417 10.512 32.5233 11.0304 33.0993 11.6832C33.6945 12.336 34.1553 13.0656 34.4817 13.872C34.8081 14.6784 34.9713 15.504 34.9713 16.3488C34.9713 17.5008 34.7025 18.5952 34.1649 19.632C33.6273 20.6688 32.8881 21.5136 31.9473 22.1664C31.0065 22.8192 29.8929 23.1456 28.6065 23.1456H23.7681V30H19.7937ZM23.7681 19.6608H28.3761C28.8561 19.6608 29.2881 19.5264 29.6721 19.2576C30.0561 18.9888 30.3633 18.6048 30.5937 18.1056C30.8241 17.5872 30.9393 17.0016 30.9393 16.3488C30.9393 15.6384 30.8049 15.0336 30.5361 14.5344C30.2865 14.0352 29.9505 13.6608 29.5281 13.4112C29.1249 13.1616 28.6833 13.0368 28.2033 13.0368H23.7681V19.6608ZM37.7375 30V9.552H46.7807C47.7215 9.552 48.5855 9.744 49.3727 10.128C50.1791 10.512 50.8703 11.0304 51.4463 11.6832C52.0415 12.336 52.4927 13.0656 52.7999 13.872C53.1263 14.6784 53.2895 15.504 53.2895 16.3488C53.2895 17.2128 53.1359 18.048 52.8287 18.8544C52.5407 19.6416 52.1183 20.3328 51.5615 20.928C51.0047 21.5232 50.3519 21.984 49.6031 22.3104L54.2687 30H49.8911L45.6863 23.1456H41.7119V30H37.7375ZM41.7119 19.6608H46.6943C47.1935 19.6608 47.6351 19.5168 48.0191 19.2288C48.4031 18.9216 48.7103 18.5184 48.9407 18.0192C49.1711 17.52 49.2863 16.9632 49.2863 16.3488C49.2863 15.696 49.1519 15.1296 48.8831 14.6496C48.6143 14.1504 48.2687 13.7568 47.8463 13.4688C47.4431 13.1808 47.0015 13.0368 46.5215 13.0368H41.7119V19.6608ZM71.089 26.5152V30H56.8906V9.552H70.8298V13.0368H60.865V17.9616H69.4762V21.1872H60.865V26.5152H71.089ZM79.7459 9.552H83.7779L91.2947 30H87.2051L85.3043 24.9024H78.1619L76.2899 30H72.2003L79.7459 9.552ZM84.5843 22.1088L81.7619 13.6704L78.8243 22.1088H84.5843ZM93.5375 30V9.552H100.968C103.195 9.552 105.057 10.0128 106.555 10.9344C108.053 11.8368 109.176 13.0656 109.925 14.6208C110.673 16.1568 111.048 17.8656 111.048 19.7472C111.048 21.8208 110.635 23.6256 109.809 25.1616C108.984 26.6976 107.813 27.888 106.296 28.7328C104.798 29.5776 103.022 30 100.968 30H93.5375ZM107.045 19.7472C107.045 18.4224 106.805 17.2608 106.325 16.2624C105.845 15.2448 105.153 14.4576 104.251 13.9008C103.349 13.3248 102.254 13.0368 100.968 13.0368H97.5119V26.5152H100.968C102.273 26.5152 103.377 26.2272 104.28 25.6512C105.182 25.056 105.864 24.2496 106.325 23.232C106.805 22.1952 107.045 21.0336 107.045 19.7472ZM129.568 30.144C128.243 30.144 126.985 29.8752 125.795 29.3376C124.624 28.8 123.587 28.0608 122.685 27.12C121.801 26.16 121.11 25.0464 120.611 23.7792C120.112 22.512 119.862 21.1392 119.862 19.6608C119.862 18.2592 120.112 16.944 120.611 15.7152C121.11 14.4672 121.811 13.3728 122.713 12.432C123.616 11.4912 124.672 10.752 125.881 10.2144C127.091 9.6768 128.406 9.408 129.827 9.408C131.747 9.408 133.389 9.8208 134.752 10.6464C136.134 11.4528 137.171 12.528 137.862 13.872L134.896 16.0608C134.377 15.0432 133.648 14.2656 132.707 13.728C131.785 13.1904 130.777 12.9216 129.683 12.9216C128.819 12.9216 128.032 13.104 127.321 13.4688C126.611 13.8336 125.997 14.3328 125.478 14.9664C124.96 15.6 124.557 16.3296 124.269 17.1552C124 17.9808 123.865 18.8544 123.865 19.776C123.865 20.7552 124.009 21.6576 124.297 22.4832C124.605 23.3088 125.027 24.0288 125.565 24.6432C126.121 25.2576 126.765 25.7472 127.494 26.112C128.224 26.4576 129.03 26.6304 129.913 26.6304C130.95 26.6304 131.939 26.3616 132.88 25.824C133.84 25.2864 134.733 24.4992 135.558 23.4624V27.3792C133.849 29.2224 131.853 30.144 129.568 30.144ZM135.27 22.3968H131.152V19.488H138.553V30H135.27V22.3968ZM197.291 30V9.552H204.721C206.948 9.552 208.811 10.0128 210.308 10.9344C211.806 11.8368 212.929 13.0656 213.678 14.6208C214.427 16.1568 214.801 17.8656 214.801 19.7472C214.801 21.8208 214.388 23.6256 213.563 25.1616C212.737 26.6976 211.566 27.888 210.049 28.7328C208.551 29.5776 206.775 30 204.721 30H197.291ZM210.798 19.7472C210.798 18.4224 210.558 17.2608 210.078 16.2624C209.598 15.2448 208.907 14.4576 208.004 13.9008C207.102 13.3248 206.007 13.0368 204.721 13.0368H201.265V26.5152H204.721C206.027 26.5152 207.131 26.2272 208.033 25.6512C208.935 25.056 209.617 24.2496 210.078 23.232C210.558 22.1952 210.798 21.0336 210.798 19.7472ZM221.881 16.8672V30H217.906V9.552H221.074L231.644 23.0304V9.5808H235.618V30H232.306L221.881 16.8672ZM254.07 26.5152V30H239.872V9.552H253.811V13.0368H243.846V17.9616H252.457V21.1872H243.846V26.5152H254.07ZM269.351 14.9088C269.217 14.7744 268.967 14.592 268.602 14.3616C268.257 14.1312 267.825 13.9104 267.306 13.6992C266.807 13.488 266.26 13.3056 265.665 13.152C265.07 12.9792 264.465 12.8928 263.85 12.8928C262.775 12.8928 261.959 13.0944 261.402 13.4976C260.865 13.9008 260.596 14.4672 260.596 15.1968C260.596 15.7536 260.769 16.1952 261.114 16.5216C261.46 16.848 261.978 17.1264 262.67 17.3568C263.361 17.5872 264.225 17.8368 265.262 18.1056C266.606 18.432 267.767 18.8352 268.746 19.3152C269.745 19.776 270.503 20.3904 271.022 21.1584C271.559 21.9072 271.828 22.9056 271.828 24.1536C271.828 25.248 271.626 26.1888 271.223 26.976C270.82 27.744 270.263 28.368 269.553 28.848C268.842 29.328 268.036 29.6832 267.134 29.9136C266.231 30.1248 265.271 30.2304 264.254 30.2304C263.236 30.2304 262.218 30.1248 261.201 29.9136C260.183 29.7024 259.204 29.4048 258.263 29.0208C257.322 28.6176 256.458 28.1376 255.671 27.5808L257.428 24.1536C257.601 24.3264 257.908 24.5568 258.35 24.8448C258.791 25.1136 259.329 25.392 259.962 25.68C260.596 25.9488 261.287 26.1792 262.036 26.3712C262.785 26.5632 263.543 26.6592 264.311 26.6592C265.386 26.6592 266.202 26.4768 266.759 26.112C267.316 25.7472 267.594 25.2288 267.594 24.5568C267.594 23.9424 267.374 23.4624 266.932 23.1168C266.49 22.7712 265.876 22.4736 265.089 22.224C264.302 21.9552 263.37 21.6672 262.295 21.36C261.009 20.9952 259.934 20.592 259.07 20.1504C258.206 19.6896 257.562 19.1136 257.14 18.4224C256.718 17.7312 256.506 16.8672 256.506 15.8304C256.506 14.4288 256.833 13.2576 257.486 12.3168C258.158 11.3568 259.06 10.6368 260.193 10.1568C261.326 9.6576 262.583 9.408 263.966 9.408C264.926 9.408 265.828 9.5136 266.673 9.7248C267.537 9.936 268.343 10.2144 269.092 10.56C269.841 10.9056 270.513 11.28 271.108 11.6832L269.351 14.9088ZM287.014 14.9088C286.879 14.7744 286.63 14.592 286.265 14.3616C285.919 14.1312 285.487 13.9104 284.969 13.6992C284.47 13.488 283.922 13.3056 283.327 13.152C282.732 12.9792 282.127 12.8928 281.513 12.8928C280.438 12.8928 279.622 13.0944 279.065 13.4976C278.527 13.9008 278.258 14.4672 278.258 15.1968C278.258 15.7536 278.431 16.1952 278.777 16.5216C279.122 16.848 279.641 17.1264 280.332 17.3568C281.023 17.5872 281.887 17.8368 282.924 18.1056C284.268 18.432 285.43 18.8352 286.409 19.3152C287.407 19.776 288.166 20.3904 288.684 21.1584C289.222 21.9072 289.49 22.9056 289.49 24.1536C289.49 25.248 289.289 26.1888 288.886 26.976C288.482 27.744 287.926 28.368 287.215 28.848C286.505 29.328 285.698 29.6832 284.796 29.9136C283.894 30.1248 282.934 30.2304 281.916 30.2304C280.898 30.2304 279.881 30.1248 278.863 29.9136C277.846 29.7024 276.866 29.4048 275.926 29.0208C274.985 28.6176 274.121 28.1376 273.334 27.5808L275.09 24.1536C275.263 24.3264 275.57 24.5568 276.012 24.8448C276.454 25.1136 276.991 25.392 277.625 25.68C278.258 25.9488 278.95 26.1792 279.698 26.3712C280.447 26.5632 281.206 26.6592 281.974 26.6592C283.049 26.6592 283.865 26.4768 284.422 26.112C284.978 25.7472 285.257 25.2288 285.257 24.5568C285.257 23.9424 285.036 23.4624 284.594 23.1168C284.153 22.7712 283.538 22.4736 282.751 22.224C281.964 21.9552 281.033 21.6672 279.958 21.36C278.671 20.9952 277.596 20.592 276.732 20.1504C275.868 19.6896 275.225 19.1136 274.802 18.4224C274.38 17.7312 274.169 16.8672 274.169 15.8304C274.169 14.4288 274.495 13.2576 275.148 12.3168C275.82 11.3568 276.722 10.6368 277.855 10.1568C278.988 9.6576 280.246 9.408 281.628 9.408C282.588 9.408 283.49 9.5136 284.335 9.7248C285.199 9.936 286.006 10.2144 286.754 10.56C287.503 10.9056 288.175 11.28 288.77 11.6832L287.014 14.9088ZM297.62 21.121C296.675 21.121 295.8 20.9654 294.994 20.6544C294.199 20.3434 293.507 19.9056 292.92 19.3411C292.332 18.7766 291.877 18.1142 291.555 17.3539C291.232 16.5936 291.071 15.7642 291.071 14.8656C291.071 13.9786 291.232 13.1549 291.555 12.3946C291.877 11.6342 292.332 10.9776 292.92 10.4246C293.507 9.86016 294.199 9.4224 294.994 9.11136C295.8 8.80032 296.675 8.6448 297.62 8.6448C298.565 8.6448 299.44 8.80032 300.247 9.11136C301.053 9.4224 301.756 9.86016 302.355 10.4246C302.954 10.9776 303.42 11.6342 303.755 12.3946C304.089 13.1549 304.256 13.9786 304.256 14.8656C304.256 15.7642 304.089 16.5936 303.755 17.3539C303.42 18.1142 302.954 18.7766 302.355 19.3411C301.756 19.9056 301.053 20.3434 300.247 20.6544C299.44 20.9654 298.565 21.121 297.62 21.121ZM297.637 20.136C298.663 20.136 299.59 19.9114 300.419 19.4621C301.249 19.0128 301.9 18.3965 302.372 17.6131C302.856 16.8182 303.098 15.9139 303.098 14.9002C303.098 14.1629 302.96 13.4774 302.683 12.8438C302.418 12.2102 302.038 11.6573 301.543 11.185C301.059 10.7011 300.483 10.3267 299.815 10.0618C299.147 9.78528 298.421 9.64704 297.637 9.64704C296.843 9.64704 296.111 9.78528 295.443 10.0618C294.786 10.3267 294.216 10.6954 293.732 11.1677C293.248 11.64 292.874 12.193 292.609 12.8266C292.344 13.4602 292.211 14.1456 292.211 14.8829C292.211 15.6086 292.344 16.2941 292.609 16.9392C292.874 17.5728 293.248 18.1315 293.732 18.6154C294.216 19.0877 294.786 19.4621 295.443 19.7386C296.111 20.0035 296.843 20.136 297.637 20.136ZM294.752 11.0813H298.156C298.64 11.0813 299.066 11.208 299.435 11.4614C299.803 11.7149 300.091 12.0374 300.299 12.4291C300.517 12.8208 300.627 13.224 300.627 13.6387C300.627 13.9382 300.569 14.2262 300.454 14.5027C300.35 14.7792 300.206 15.0326 300.022 15.263C299.838 15.4819 299.625 15.6605 299.383 15.7987L301.093 18.5808H298.933L297.43 16.1616H296.704V18.5808H294.752V11.0813ZM297.966 14.5718C298.185 14.5718 298.363 14.5027 298.501 14.3645C298.64 14.2147 298.709 13.9728 298.709 13.6387C298.709 13.2931 298.628 13.0512 298.467 12.913C298.317 12.7747 298.139 12.7056 297.931 12.7056H296.704V14.5718H297.966Z" fill="white"/>
</svg>
